<svg viewBox="0 0 920 610" xmlns="http://www.w3.org/2000/svg" role="img" font-family="system-ui, -apple-system, sans-serif">
  <title>Zalyx Agent Society — Architecture (H0: Hack the Zero Stack)</title>
  <desc>Five-agent underwriting pipeline: Vercel React frontend → Express.js API (SSE) → Agent Orchestrator → five specialized agents → Amazon Bedrock (Nova Pro, Converse API, tool use) + Amazon DynamoDB (two tables, decision-index GSI) + MCP Server (three tools)</desc>

  <defs>
    <marker id="arr"      markerWidth="8" markerHeight="8" refX="6" refY="3" orient="auto"><path d="M0,0 L0,6 L8,3z" fill="#6b7280"/></marker>
    <marker id="arr-teal" markerWidth="8" markerHeight="8" refX="6" refY="3" orient="auto"><path d="M0,0 L0,6 L8,3z" fill="#26C7C3"/></marker>
    <marker id="arr-aws"  markerWidth="8" markerHeight="8" refX="6" refY="3" orient="auto"><path d="M0,0 L0,6 L8,3z" fill="#FF9900"/></marker>
    <marker id="arr-ddb"  markerWidth="8" markerHeight="8" refX="6" refY="3" orient="auto"><path d="M0,0 L0,6 L8,3z" fill="#527FFF"/></marker>
    <marker id="arr-mcp"  markerWidth="8" markerHeight="8" refX="6" refY="3" orient="auto"><path d="M0,0 L0,6 L8,3z" fill="#8354AA"/></marker>
  </defs>

  <!-- Background -->
  <rect width="920" height="610" fill="#0f1117"/>

  <!-- Header -->
  <text x="460" y="28" text-anchor="middle" fill="#f1f5f9" font-size="16" font-weight="700" letter-spacing="-0.4">Zalyx Agent Society — Architecture</text>
  <text x="460" y="46" text-anchor="middle" fill="#6b7280" font-size="11">Track 2: Monetizable B2B App  ·  H0: Hack the Zero Stack 2026</text>

  <!-- ── Layer 1: Vercel → API → Orchestrator ── -->
  <!-- Vercel -->
  <rect x="12" y="62" width="160" height="92" rx="8" fill="#13151f" stroke="#26C7C3" stroke-width="1.5"/>
  <rect x="12" y="62" width="160" height="26" rx="8" fill="#1a1f2e"/>
  <rect x="12" y="80" width="160" height="8" fill="#1a1f2e"/>
  <text x="92" y="80" text-anchor="middle" fill="#26C7C3" font-size="11" font-weight="700">▲ Vercel</text>
  <text x="92" y="100" text-anchor="middle" fill="#94a3b8" font-size="10">React + Vite frontend</text>
  <text x="92" y="116" text-anchor="middle" fill="#64748b" font-size="9">SSE consumer · merchant selector</text>
  <text x="92" y="130" text-anchor="middle" fill="#64748b" font-size="9">Live transcript · audit report</text>
  <text x="92" y="144" text-anchor="middle" fill="#64748b" font-size="9">Decision history (DynamoDB reads)</text>

  <!-- SSE arrow -->
  <line x1="172" y1="108" x2="193" y2="108" stroke="#26C7C3" stroke-width="1.5" marker-end="url(#arr-teal)"/>
  <text x="183" y="103" text-anchor="middle" fill="#26C7C3" font-size="8">SSE</text>

  <!-- Express API -->
  <rect x="196" y="62" width="170" height="92" rx="8" fill="#13151f" stroke="#3b82f6" stroke-width="1.5"/>
  <rect x="196" y="62" width="170" height="26" rx="8" fill="#1a1f2e"/>
  <rect x="196" y="80" width="170" height="8" fill="#1a1f2e"/>
  <text x="281" y="80" text-anchor="middle" fill="#93c5fd" font-size="11" font-weight="700">Express.js API</text>
  <text x="281" y="100" text-anchor="middle" fill="#94a3b8" font-size="10">Node.js · TypeScript</text>
  <text x="281" y="116" text-anchor="middle" fill="#64748b" font-size="9">POST /api/underwrite/stream</text>
  <text x="281" y="130" text-anchor="middle" fill="#64748b" font-size="9">GET  /api/merchants (DynamoDB)</text>
  <text x="281" y="144" text-anchor="middle" fill="#64748b" font-size="9">GET  /api/decisions?type= (GSI)</text>

  <line x1="366" y1="108" x2="387" y2="108" stroke="#6b7280" stroke-width="1.5" marker-end="url(#arr)"/>

  <!-- Orchestrator -->
  <rect x="390" y="62" width="215" height="92" rx="8" fill="#13151f" stroke="#8354AA" stroke-width="1.5"/>
  <rect x="390" y="62" width="215" height="26" rx="8" fill="#1a1f2e"/>
  <rect x="390" y="80" width="215" height="8" fill="#1a1f2e"/>
  <text x="497" y="80" text-anchor="middle" fill="#c4b5fd" font-size="11" font-weight="700">Agent Orchestrator</text>
  <text x="497" y="100" text-anchor="middle" fill="#94a3b8" font-size="10">agent-orchestrator.ts</text>
  <text x="497" y="116" text-anchor="middle" fill="#64748b" font-size="9">Stages 1+2 parallel · Debate 3b/3c conditional</text>
  <text x="497" y="130" text-anchor="middle" fill="#64748b" font-size="9">Stage 4 skip on high risk · Emits SSE events</text>
  <text x="497" y="144" text-anchor="middle" fill="#64748b" font-size="9">Saves decision → DynamoDB on completion</text>

  <!-- Orchestrator → Agents fan-out -->
  <line x1="497" y1="154" x2="497" y2="172" stroke="#4b5563" stroke-width="1"/>
  <line x1="57"  y1="172" x2="610" y2="172" stroke="#4b5563" stroke-width="1"/>
  <line x1="57"  y1="172" x2="57"  y2="186" stroke="#4b5563" stroke-width="1" marker-end="url(#arr)"/>
  <line x1="172" y1="172" x2="172" y2="186" stroke="#4b5563" stroke-width="1" marker-end="url(#arr)"/>
  <line x1="287" y1="172" x2="287" y2="186" stroke="#4b5563" stroke-width="1" marker-end="url(#arr)"/>
  <line x1="402" y1="172" x2="402" y2="186" stroke="#4b5563" stroke-width="1" marker-end="url(#arr)"/>
  <line x1="540" y1="172" x2="540" y2="186" stroke="#4b5563" stroke-width="1" marker-end="url(#arr)"/>

  <!-- Parallel badge -->
  <rect x="12" y="178" width="228" height="9" rx="2" fill="rgba(34,197,94,0.12)"/>
  <text x="126" y="187" text-anchor="middle" fill="#22c55e" font-size="8">Parallel — Stage 1 + 2</text>

  <!-- ── Five Agents ── -->
  <!-- Agent 1: Data Quality -->
  <rect x="12" y="190" width="112" height="128" rx="7" fill="#13151f" stroke="#6366f1" stroke-width="1.5"/>
  <rect x="12" y="190" width="112" height="22" rx="7" fill="#1e1b4b"/>
  <rect x="12" y="204" width="112" height="8" fill="#1e1b4b"/>
  <text x="68" y="205" text-anchor="middle" fill="#a5b4fc" font-size="9.5" font-weight="700">① Data Quality</text>
  <text x="68" y="223" text-anchor="middle" fill="#64748b" font-size="8.5">Completeness + anomaly</text>
  <text x="68" y="237" text-anchor="middle" fill="#64748b" font-size="8.5">CBN compliance check</text>
  <text x="68" y="253" text-anchor="middle" fill="#8354AA" font-size="8">MCP: cbn_compliance</text>
  <text x="68" y="267" text-anchor="middle" fill="#8354AA" font-size="8">1 Bedrock call</text>
  <text x="68" y="284" text-anchor="middle" fill="#475569" font-size="7.5">data-quality-agent.ts</text>
  <text x="68" y="297" text-anchor="middle" fill="#475569" font-size="7.5">position message · Stage 1</text>

  <!-- Agent 2: Business Analysis -->
  <rect x="130" y="190" width="112" height="128" rx="7" fill="#13151f" stroke="#22c55e" stroke-width="1.5"/>
  <rect x="130" y="190" width="112" height="22" rx="7" fill="#052e16"/>
  <rect x="130" y="204" width="112" height="8" fill="#052e16"/>
  <text x="186" y="205" text-anchor="middle" fill="#86efac" font-size="9.5" font-weight="700">② Business</text>
  <text x="186" y="223" text-anchor="middle" fill="#64748b" font-size="8.5">Revenue health score</text>
  <text x="186" y="237" text-anchor="middle" fill="#64748b" font-size="8.5">Seasonality patterns</text>
  <text x="186" y="253" text-anchor="middle" fill="#8354AA" font-size="8">MCP: industry_benchmarks</text>
  <text x="186" y="267" text-anchor="middle" fill="#8354AA" font-size="8">2 Bedrock calls (+ rebuttal)</text>
  <text x="186" y="284" text-anchor="middle" fill="#475569" font-size="7.5">business-analysis-agent.ts</text>
  <text x="186" y="297" text-anchor="middle" fill="#475569" font-size="7.5">position + rebuttal · Stage 2/3b</text>

  <!-- Agent 3: Risk Assessment -->
  <rect x="248" y="190" width="112" height="128" rx="7" fill="#13151f" stroke="#f59e0b" stroke-width="1.5"/>
  <rect x="248" y="190" width="112" height="22" rx="7" fill="#1c1407"/>
  <rect x="248" y="204" width="112" height="8" fill="#1c1407"/>
  <text x="304" y="205" text-anchor="middle" fill="#fcd34d" font-size="9.5" font-weight="700">③ Risk Assessment</text>
  <text x="304" y="223" text-anchor="middle" fill="#64748b" font-size="8.5">Challenges ② directly</text>
  <text x="304" y="237" text-anchor="middle" fill="#64748b" font-size="8.5">Portfolio default rates</text>
  <text x="304" y="253" text-anchor="middle" fill="#8354AA" font-size="8">MCP: sector_default_rate</text>
  <text x="304" y="267" text-anchor="middle" fill="#8354AA" font-size="8">2 Bedrock calls (+ verdict)</text>
  <text x="304" y="284" text-anchor="middle" fill="#475569" font-size="7.5">risk-assessment-agent.ts</text>
  <text x="304" y="297" text-anchor="middle" fill="#475569" font-size="7.5">challenge + verdict · Stage 3/3c</text>

  <!-- Agent 4: Financing -->
  <rect x="366" y="190" width="112" height="128" rx="7" fill="#13151f" stroke="#3b82f6" stroke-width="1.5"/>
  <rect x="366" y="190" width="112" height="22" rx="7" fill="#0c1a3a"/>
  <rect x="366" y="204" width="112" height="8" fill="#0c1a3a"/>
  <text x="422" y="205" text-anchor="middle" fill="#93c5fd" font-size="9.5" font-weight="700">④ Financing</text>
  <text x="422" y="223" text-anchor="middle" fill="#64748b" font-size="8.5">Murabaha offer design</text>
  <text x="422" y="237" text-anchor="middle" fill="#64748b" font-size="8.5">Cost price + profit margin</text>
  <text x="422" y="251" text-anchor="middle" fill="#64748b" font-size="8.5">Affordability cap 20% GTV</text>
  <text x="422" y="265" text-anchor="middle" fill="#64748b" font-size="8.5">No interest · No late fees</text>
  <text x="422" y="281" text-anchor="middle" fill="#8354AA" font-size="8">1 Bedrock call</text>
  <text x="422" y="297" text-anchor="middle" fill="#475569" font-size="7.5">Skipped if risk ≥ 80 · Stage 4</text>

  <!-- Agent 5: Human Review -->
  <rect x="484" y="190" width="130" height="128" rx="7" fill="#13151f" stroke="#a78bfa" stroke-width="1.5"/>
  <rect x="484" y="190" width="130" height="22" rx="7" fill="#1a0e2e"/>
  <rect x="484" y="204" width="130" height="8" fill="#1a0e2e"/>
  <text x="549" y="205" text-anchor="middle" fill="#c4b5fd" font-size="9.5" font-weight="700">⑤ Human Review</text>
  <text x="549" y="223" text-anchor="middle" fill="#64748b" font-size="8.5">Synthesises full debate</text>
  <text x="549" y="237" text-anchor="middle" fill="#64748b" font-size="8.5">approved · rejected</text>
  <text x="549" y="251" text-anchor="middle" fill="#64748b" font-size="8.5">requires-clarification</text>
  <text x="549" y="265" text-anchor="middle" fill="#64748b" font-size="8.5">Disbursement conditions</text>
  <text x="549" y="281" text-anchor="middle" fill="#8354AA" font-size="8">2 Bedrock calls</text>
  <text x="549" y="297" text-anchor="middle" fill="#475569" font-size="7.5">human-review-agent.ts · Stage 5</text>

  <!-- Debate callout -->
  <rect x="12" y="328" width="602" height="36" rx="6" fill="rgba(245,158,11,0.07)" stroke="rgba(245,158,11,0.3)" stroke-width="1" stroke-dasharray="4,3"/>
  <text x="313" y="344" text-anchor="middle" fill="#fcd34d" font-size="9.5" font-weight="600">Conditional Debate — fires when health &gt; 55 AND risk &gt; 35</text>
  <text x="313" y="358" text-anchor="middle" fill="#92400e" font-size="8.5">Business Agent rebuts ②  →  Risk Agent issues final verdict ③c  →  DebateLedger records every claim + resolution type</text>

  <!-- MCP Server -->
  <rect x="12" y="378" width="230" height="148" rx="8" fill="#13151f" stroke="#8354AA" stroke-width="1.5"/>
  <rect x="12" y="378" width="230" height="26" rx="8" fill="#1a0e2e"/>
  <rect x="12" y="396" width="230" height="8" fill="#1a0e2e"/>
  <text x="127" y="396" text-anchor="middle" fill="#c4b5fd" font-size="11" font-weight="700">MCP Server</text>
  <text x="127" y="414" text-anchor="middle" fill="#94a3b8" font-size="9">@modelcontextprotocol/sdk · stdio transport</text>
  <rect x="22" y="422" width="210" height="22" rx="4" fill="rgba(131,84,170,0.12)"/>
  <text x="127" y="437" text-anchor="middle" fill="#a78bfa" font-size="9">check_cbn_compliance</text>
  <rect x="22" y="450" width="210" height="22" rx="4" fill="rgba(131,84,170,0.12)"/>
  <text x="127" y="465" text-anchor="middle" fill="#a78bfa" font-size="9">get_industry_benchmarks</text>
  <rect x="22" y="478" width="210" height="22" rx="4" fill="rgba(131,84,170,0.12)"/>
  <text x="127" y="493" text-anchor="middle" fill="#a78bfa" font-size="9">get_sector_default_rate</text>
  <text x="127" y="518" text-anchor="middle" fill="#475569" font-size="8">3 MCP calls per underwriting run</text>

  <!-- Agents → MCP arrows -->
  <line x1="68"  y1="318" x2="68"  y2="376" stroke="#8354AA" stroke-width="1" stroke-dasharray="3,2" marker-end="url(#arr-mcp)"/>
  <line x1="186" y1="318" x2="186" y2="376" stroke="#8354AA" stroke-width="1" stroke-dasharray="3,2" marker-end="url(#arr-mcp)"/>
  <line x1="304" y1="318" x2="196" y2="376" stroke="#8354AA" stroke-width="1" stroke-dasharray="3,2" marker-end="url(#arr-mcp)"/>

  <!-- ── Amazon Bedrock ── -->
  <rect x="648" y="62" width="258" height="218" rx="8" fill="#13151f" stroke="#FF9900" stroke-width="1.5"/>
  <rect x="648" y="62" width="258" height="26" rx="8" fill="#1a1000"/>
  <rect x="648" y="80" width="258" height="8" fill="#1a1000"/>
  <text x="777" y="80" text-anchor="middle" fill="#FF9900" font-size="11" font-weight="700">Amazon Bedrock</text>
  <text x="777" y="100" text-anchor="middle" fill="#94a3b8" font-size="10">Model: amazon.nova-pro-v1:0</text>
  <rect x="658" y="108" width="238" height="30" rx="5" fill="rgba(255,153,0,0.1)" stroke="rgba(255,153,0,0.3)" stroke-width="1"/>
  <text x="777" y="122" text-anchor="middle" fill="#fbbf24" font-size="9.5" font-weight="600">Converse API (ConverseCommand)</text>
  <text x="777" y="133" text-anchor="middle" fill="#92400e" font-size="8.5">messages[] · system prompt · stopReason</text>
  <rect x="658" y="145" width="238" height="30" rx="5" fill="rgba(255,153,0,0.1)" stroke="rgba(255,153,0,0.3)" stroke-width="1"/>
  <text x="777" y="159" text-anchor="middle" fill="#fbbf24" font-size="9.5" font-weight="600">Tool Use  (toolSpec / toolUse)</text>
  <text x="777" y="170" text-anchor="middle" fill="#92400e" font-size="8.5">Structured JSON via tool call arguments</text>
  <rect x="658" y="182" width="238" height="30" rx="5" fill="rgba(255,153,0,0.1)" stroke="rgba(255,153,0,0.3)" stroke-width="1"/>
  <text x="777" y="196" text-anchor="middle" fill="#fbbf24" font-size="9.5" font-weight="600">Schema conversion (internal)</text>
  <text x="777" y="207" text-anchor="middle" fill="#92400e" font-size="8.5">OpenAI tool format → Bedrock toolSpec</text>
  <text x="777" y="234" text-anchor="middle" fill="#64748b" font-size="9">8 Bedrock calls per underwriting run</text>
  <text x="777" y="249" text-anchor="middle" fill="#64748b" font-size="9">PAY_PER_REQUEST · us-east-1</text>
  <text x="777" y="264" text-anchor="middle" fill="#475569" font-size="8">utils/bedrock-client.ts</text>

  <!-- Agent area → Bedrock arrow -->
  <line x1="614" y1="255" x2="645" y2="195" stroke="#FF9900" stroke-width="1.5" stroke-dasharray="4,2" marker-end="url(#arr-aws)"/>
  <text x="634" y="230" fill="#92400e" font-size="8" text-anchor="middle">tool use</text>

  <!-- ── Amazon DynamoDB ── -->
  <rect x="648" y="298" width="258" height="248" rx="8" fill="#13151f" stroke="#527FFF" stroke-width="1.5"/>
  <rect x="648" y="298" width="258" height="26" rx="8" fill="#0a0f2e"/>
  <rect x="648" y="316" width="258" height="8" fill="#0a0f2e"/>
  <text x="777" y="316" text-anchor="middle" fill="#818cf8" font-size="11" font-weight="700">Amazon DynamoDB</text>
  <text x="777" y="336" text-anchor="middle" fill="#94a3b8" font-size="9">PAY_PER_REQUEST · us-east-1 · auto-created on boot</text>
  <rect x="658" y="344" width="238" height="48" rx="5" fill="rgba(82,127,255,0.1)" stroke="rgba(82,127,255,0.3)" stroke-width="1"/>
  <text x="777" y="358" text-anchor="middle" fill="#818cf8" font-size="9.5" font-weight="600">zalyx-merchants</text>
  <text x="777" y="372" text-anchor="middle" fill="#475569" font-size="8.5">PK: id (S)  ·  merchant snapshots</text>
  <text x="777" y="385" text-anchor="middle" fill="#475569" font-size="8.5">Seeded from /data/snapshots on boot</text>
  <rect x="658" y="400" width="238" height="70" rx="5" fill="rgba(82,127,255,0.1)" stroke="rgba(82,127,255,0.3)" stroke-width="1"/>
  <text x="777" y="414" text-anchor="middle" fill="#818cf8" font-size="9.5" font-weight="600">zalyx-decisions</text>
  <text x="777" y="428" text-anchor="middle" fill="#475569" font-size="8.5">PK: merchantId (S)  SK: requestId (S)</text>
  <text x="777" y="442" text-anchor="middle" fill="#475569" font-size="8.5">Full UnderwritingReport JSON blob</text>
  <rect x="668" y="452" width="218" height="14" rx="3" fill="rgba(129,140,248,0.15)"/>
  <text x="777" y="463" text-anchor="middle" fill="#a5b4fc" font-size="8">GSI: decision-index  ·  decision (H) + createdAt (R)</text>
  <text x="777" y="484" text-anchor="middle" fill="#64748b" font-size="8.5">GET /api/decisions?type=approved|rejected</text>
  <text x="777" y="498" text-anchor="middle" fill="#64748b" font-size="8.5">Cross-merchant compliance queries via GSI</text>
  <text x="777" y="514" text-anchor="middle" fill="#475569" font-size="8">utils/dynamo.ts · listDecisionsByType()</text>
  <text x="777" y="528" text-anchor="middle" fill="#475569" font-size="8">DynamoDBDocumentClient · SDK v3</text>

  <!-- Human Review → DynamoDB write -->
  <line x1="614" y1="290" x2="645" y2="410" stroke="#527FFF" stroke-width="1.5" stroke-dasharray="4,2" marker-end="url(#arr-ddb)"/>
  <text x="638" y="365" fill="#334155" font-size="8" text-anchor="middle">write</text>

  <!-- API → DynamoDB read (merchants) -->
  <line x1="366" y1="120" x2="648" y2="375" stroke="#527FFF" stroke-width="1" stroke-dasharray="3,3" opacity="0.4" marker-end="url(#arr-ddb)"/>

  <!-- Baseline callout -->
  <rect x="258" y="382" width="374" height="50" rx="6" fill="rgba(99,102,241,0.07)" stroke="rgba(99,102,241,0.25)" stroke-width="1"/>
  <text x="445" y="399" text-anchor="middle" fill="#818cf8" font-size="10" font-weight="600">Single-Agent Baseline (parallel comparison)</text>
  <text x="445" y="414" text-anchor="middle" fill="#64748b" font-size="8.5">agents/baseline-agent.ts · 1 Bedrock call · no tool use · no debate</text>
  <text x="445" y="427" text-anchor="middle" fill="#64748b" font-size="8.5">Result shown side-by-side · decisionDelta in every report</text>

  <!-- Legend -->
  <rect x="258" y="445" width="374" height="90" rx="6" fill="#0d0f18" stroke="#1e2433" stroke-width="1"/>
  <text x="445" y="461" text-anchor="middle" fill="#475569" font-size="9" font-weight="600">LEGEND</text>
  <line x1="270" y1="473" x2="298" y2="473" stroke="#26C7C3" stroke-width="1.5"/>
  <text x="304" y="476" fill="#64748b" font-size="8.5">SSE streaming (real-time agent events to Vercel UI)</text>
  <line x1="270" y1="489" x2="298" y2="489" stroke="#FF9900" stroke-width="1.5" stroke-dasharray="4,2"/>
  <text x="304" y="492" fill="#64748b" font-size="8.5">Bedrock API (Converse + tool use)</text>
  <line x1="270" y1="505" x2="298" y2="505" stroke="#527FFF" stroke-width="1.5" stroke-dasharray="4,2"/>
  <text x="304" y="508" fill="#64748b" font-size="8.5">DynamoDB read / write (AWS SDK v3)</text>
  <line x1="430" y1="473" x2="458" y2="473" stroke="#8354AA" stroke-width="1.5" stroke-dasharray="3,2"/>
  <text x="464" y="476" fill="#64748b" font-size="8.5">MCP tool calls (stdio)</text>
  <line x1="430" y1="489" x2="458" y2="489" stroke="#4b5563" stroke-width="1.5"/>
  <text x="464" y="492" fill="#64748b" font-size="8.5">Orchestrator pipeline control</text>
  <text x="445" y="526" text-anchor="middle" fill="#334155" font-size="8">8 Bedrock calls + 3 MCP calls per underwriting run</text>

  <!-- Footer -->
  <rect x="12" y="548" width="896" height="48" rx="6" fill="#0d0f18" stroke="#1e2433" stroke-width="1"/>
  <text x="456" y="566" text-anchor="middle" fill="#475569" font-size="9" font-weight="600">TECH STACK</text>
  <text x="456" y="581" text-anchor="middle" fill="#334155" font-size="8.5">AI: Amazon Bedrock (amazon.nova-pro-v1:0) · Converse API · Tool Use   |   DB: Amazon DynamoDB · 2 tables · PAY_PER_REQUEST · decision-index GSI</text>
  <text x="456" y="592" text-anchor="middle" fill="#334155" font-size="8.5">Frontend: React + Vite → Vercel   |   MCP: @modelcontextprotocol/sdk v1.29 · stdio · 3 tools   |   Backend: Node.js · Express · TypeScript</text>
</svg>
